<?xml version="1.0" standalone="no"?>
<!DOCTYPE svg PUBLIC "-//W3C//DTD SVG 20010904//EN"
 "http://www.w3.org/TR/2001/REC-SVG-20010904/DTD/svg10.dtd">
<svg version="1.0" xmlns="http://www.w3.org/2000/svg"
 width="700.000000pt" height="700.000000pt" viewBox="0 0 700.000000 700.000000"
 preserveAspectRatio="xMidYMid meet">
<metadata>
Created by potrace 1.11, written by Peter Selinger 2001-2013
</metadata>
<g transform="translate(0.000000,700.000000) scale(0.100000,-0.100000)"
fill="#000000" stroke="none">
<path d="M80 3500 l0 -3420 3420 0 3420 0 0 3420 0 3420 -3420 0 -3420 0 0
-3420z m6780 0 l0 -3360 -3360 0 -3360 0 0 3360 0 3360 3360 0 3360 0 0 -3360z"/>
<path d="M3890 6583 c0 -10 45 -281 100 -602 55 -322 99 -586 97 -587 -2 -2
-447 -171 -887 -335 -146 -55 -268 -103 -273 -108 -4 -4 214 -45 485 -90 704
-119 807 -137 814 -143 3 -4 51 -263 107 -577 56 -314 105 -571 108 -571 3 0
145 231 315 514 292 487 309 514 334 510 88 -16 1485 -202 1489 -198 3 3 0 8
-6 12 -6 4 -254 195 -551 426 l-540 419 61 96 c34 53 189 294 344 536 155 241
280 441 278 443 -2 2 -263 -112 -582 -253 -318 -142 -597 -265 -619 -275 l-41
-18 -512 409 c-281 225 -513 409 -516 409 -3 0 -5 -8 -5 -17z m670 -978 c258
-92 336 -374 152 -553 -86 -84 -187 -121 -329 -122 -225 0 -411 148 -416 333
l-2 59 70 28 c78 31 77 29 61 137 l-8 51 44 26 c123 72 295 89 428 41z"/>
<path d="M1570 5048 c0 -14 67 -410 75 -444 4 -20 -15 -29 -230 -110 -160 -61
-229 -91 -218 -96 10 -4 119 -24 243 -44 124 -20 234 -40 246 -44 18 -7 25
-34 58 -226 21 -121 41 -223 43 -227 3 -5 56 76 118 180 62 103 119 196 126
206 13 16 29 15 304 -23 160 -22 295 -39 301 -38 7 2 -87 79 -207 172 -187
144 -217 171 -209 186 6 10 64 103 131 206 67 103 123 194 126 201 3 7 -46
-10 -108 -38 -63 -28 -175 -78 -251 -111 l-136 -60 -201 161 c-110 89 -203
161 -206 161 -3 0 -5 -6 -5 -12z m262 -475 c24 -21 23 -68 -2 -93 -44 -44
-142 -14 -142 43 0 67 90 99 144 50z"/>
<path d="M2656 3443 c20 -88 201 -1189 196 -1194 -4 -4 -261 -102 -572 -219
-311 -116 -572 -216 -580 -220 -20 -11 -58 -4 665 -126 347 -58 631 -107 632
-108 2 -2 48 -256 103 -567 56 -310 103 -570 106 -578 3 -8 141 213 315 502
170 284 315 517 322 517 6 0 342 -45 746 -100 404 -56 741 -99 749 -98 13 3
-143 126 -904 714 l-183 142 345 537 c189 296 343 539 341 541 -1 1 -268 -115
-592 -259 -325 -145 -605 -269 -622 -276 l-33 -13 -514 411 c-282 226 -516
411 -519 411 -3 0 -3 -8 -1 -17z m606 -964 c91 -19 171 -63 231 -128 65 -70
87 -127 87 -221 0 -201 -221 -368 -459 -346 -216 19 -372 155 -388 336 l-6 57
77 28 c84 31 82 28 65 119 -12 68 -8 76 63 112 100 51 219 66 330 43z"/>
</g>
</svg>
